<?xml version="1.0" encoding="utf-8"?>
<!-- Generator: Adobe Illustrator 24.0.2, SVG Export Plug-In . SVG Version: 6.00 Build 0)  -->
<svg version="1.1" id="Layer_1" xmlns="http://www.w3.org/2000/svg" xmlns:xlink="http://www.w3.org/1999/xlink" x="0px" y="0px"
	 viewBox="0 0 512 512" style="enable-background:new 0 0 512 512;" xml:space="preserve">
<style type="text/css">
	.st0{fill:#C5E9F9;}
	.st1{fill:#5E889E;}
</style>
<circle class="st0" cx="256.3281" cy="255.9678" r="248.873"/>
<g>
	<path class="st1" d="M252.77,221.1409c0,1.8304,1.4902,3.317,3.3188,3.317h78.3961c1.8195,0,3.3206-1.4866,3.3206-3.317v-2.0979
		c0-1.8268-1.5011-3.3261-3.3206-3.3261h-78.3961c-1.8268,0-3.3188,1.4975-3.3188,3.3261V221.1409z"/>
	<path class="st1" d="M256.0888,199.5194h78.3961c1.8195,0,3.3206-1.4975,3.3206-3.317v-2.1052
		c0-1.8195-1.5011-3.3188-3.3206-3.3188h-78.3961c-1.8268,0-3.3188,1.4975-3.3188,3.3188v2.1052
		C252.77,198.0201,254.262,199.5194,256.0888,199.5194z"/>
	<path class="st1" d="M359.8,100.8574h-43.7014c0.0073,0.2766,0.0382,0.5477,0.0382,0.8242v24.0632h35.3698
		c4.5652,0,8.2934,3.7246,8.2934,8.2934v212.3679l-66.3618,66.369H160.671c-4.5652,0-8.2934-3.7355-8.2934-8.2934V134.0365
		c0-4.5688,3.7282-8.2934,8.2934-8.2934h35.3789v-24.0614c0-0.2766,0.0218-0.5477,0.0364-0.8242h-43.7105
		c-13.6865,0-24.8875,11.201-24.8875,24.8875v287.0303c0.0018,13.6865,11.2028,24.8875,24.8875,24.8875H359.8
		c13.6938,0,24.8893-11.201,24.8893-24.8893V125.7449C384.6893,112.0566,373.4937,100.8574,359.8,100.8574z"/>
	<path class="st1" d="M175.3455,245.3697c0,1.8177,1.4938,3.3152,3.3224,3.3152h155.8188c1.8195,0,3.3206-1.4975,3.3206-3.3152
		v-2.1088c0-1.8195-1.5011-3.3188-3.3206-3.3188H178.6661c-1.8268,0-3.3225,1.4975-3.3225,3.3188v2.1088H175.3455z"/>
	<path class="st1" d="M178.6661,224.4579H230.65c1.8268,0,3.3224-1.4866,3.3224-3.317V169.157c0-1.8304-1.4938-3.3188-3.3224-3.3188
		h-51.9839c-1.8268,0-3.3224,1.4866-3.3224,3.3188v51.9839C175.3455,222.9713,176.8393,224.4579,178.6661,224.4579z"/>
	<path class="st1" d="M301.7316,346.4062c-2.1143,0-4.2468,0.8134-5.8661,2.4345c-1.6212,1.6121-2.4272,3.7428-2.4272,5.8661
		v46.3361l54.6349-54.6349h-46.3415V346.4062z"/>
	<path class="st1" d="M175.3455,270.3063c0,1.8268,1.4938,3.3134,3.3224,3.3134h155.8188c1.8195,0,3.3206-1.4865,3.3206-3.3134
		v-2.0925c0-1.8359-1.5011-3.3297-3.3206-3.3297H178.6661c-1.8268,0-3.3225,1.4938-3.3225,3.3297v2.0925H175.3455z"/>
	<path class="st1" d="M334.4849,165.8382h-78.3961c-1.8268,0-3.3188,1.4866-3.3188,3.3188v2.0961
		c0,1.8268,1.4902,3.3261,3.3188,3.3261h78.3961c1.8195,0,3.3206-1.4975,3.3206-3.3261v-2.0961
		C337.8055,167.3266,336.3044,165.8382,334.4849,165.8382z"/>
	<path class="st1" d="M175.3455,295.2466c0,1.8268,1.4938,3.3206,3.3224,3.3206h155.8188c1.8195,0,3.3206-1.4938,3.3206-3.3206
		v-2.0943c0-1.8268-1.5011-3.3206-3.3206-3.3206H178.6661c-1.8268,0-3.3225,1.4938-3.3225,3.3206v2.0943H175.3455z"/>
	<path class="st1" d="M175.3455,320.1868c0,1.8268,1.4938,3.3297,3.3224,3.3297h74.586c1.8268,0,3.3206-1.5029,3.3206-3.3297
		v-2.0924c0-1.8214-1.4938-3.3224-3.3206-3.3224h-74.5878c-1.8268,0-3.3225,1.5011-3.3225,3.3224v2.0924H175.3455z"/>
	<path class="st1" d="M207.6639,131.5474h96.857c0.8443,0,1.6867-0.3293,2.3381-0.9844c0.6459-0.6441,0.9825-1.4866,0.9825-2.3308
		v-26.5505c0-2.9658-1.15-5.9371-3.4098-8.2079c-2.2672-2.2708-5.2384-3.4025-8.2079-3.4025h-23.8267
		c0.0018-9.0121-7.2981-16.3139-16.3084-16.3139c-9.0067,0-16.3084,7.3018-16.3084,16.3139h-23.8231
		c-2.9731,0-5.9408,1.1317-8.2152,3.4025c-2.2526,2.2726-3.4043,5.2421-3.4043,8.2079v26.5524c0,0.8424,0.3366,1.6867,0.9807,2.3308
		C205.9699,131.2199,206.8123,131.5474,207.6639,131.5474z M256.0888,82.4729c4.1995,0,7.602,3.4025,7.602,7.5983
		c0,4.194-3.4025,7.5983-7.602,7.5983c-4.1958,0-7.5947-3.4043-7.5947-7.5983C248.494,85.8754,251.8929,82.4729,256.0888,82.4729z"
		/>
</g>
</svg>
